<svg xmlns="http://www.w3.org/2000/svg" width="68" height="68" viewBox="0 0 68 68">
    <g fill="none" fill-rule="evenodd">
        <path fill="#FAFBFC" d="M0 0H1440V3097H0z" transform="translate(-1332 -166)"/>
        <g>
            <path fill="#437ECE" d="M0 0L1440 0 1440 120 0 120z" transform="translate(-1332 -166) translate(0 140)"/>
            <path fill="#FFF" d="M1371.926 52.111c.593.036 1.053.532 1.044 1.126l-.651 19.437c-.008.614-.513 1.105-1.126 1.097h-.008c-.613-.02-1.094-.534-1.073-1.147v-.002l.651-19.437c.01-.605.51-1.087 1.116-1.076l.047.002zm-10.674 1.074l.652 19.437c.02.614-.46 1.128-1.073 1.148h-.017c-.598.001-1.09-.474-1.11-1.074l-.674-19.459c-.01-.594.45-1.09 1.044-1.126.608-.04 1.135.418 1.176 1.027l.002.047zm17.118 23.171c-.075 1.785-1.546 3.194-3.333 3.193h-18.074c-1.787 0-3.258-1.408-3.333-3.193l-1.304-30.015h27.348l-1.304 30.015zm-16.815-32.237h8.89v-2.896h-8.89v2.896zm21.334 0h-10.223V40.11c0-.614-.497-1.111-1.11-1.111h-11.09c-.613-.012-1.12.476-1.132 1.089l-.001.022v4.007h-10.222c-.614 0-1.111.498-1.111 1.112 0 .614.497 1.11 1.111 1.11h.993l1.303 30.112c.124 2.977 2.577 5.325 5.556 5.318h18.074c2.98.007 5.432-2.341 5.556-5.318l1.303-30.111h.993c.614 0 1.111-.497 1.111-1.111s-.497-1.112-1.111-1.112z" transform="translate(-1332 -166) translate(0 140)"/>
        </g>
    </g>
</svg>
