<svg xmlns="http://www.w3.org/2000/svg" width="68" height="68" viewBox="0 0 68 68">
    <g fill="none" fill-rule="evenodd">
        <path stroke="#FFF" stroke-linecap="round" stroke-linejoin="round" stroke-width="2" d="M35.653 10.204c2.48-.165 4.959 1.488 5.289 3.636 4.628.166 4.628 6.777 3.14 10.248 3.471-.33.992 7.769-.99 7.604-.332 2.48-1.489 4.628-3.141 6.28v2.315c4.131.661 7.934 1.983 10.909 3.967 1.818 1.322 2.644 3.636 3.14 5.62-5.124 4.959-12.231 8.099-20 8.099s-14.876-3.14-20-8.1c.496-1.983 1.322-4.297 3.14-5.62 2.975-1.983 6.777-3.305 10.91-3.966v-2.314c-1.654-1.653-2.81-3.802-3.141-6.281-1.984 0-4.463-7.769-1.157-7.604-1.818-4.132-.165-9.917 3.14-11.9-2.479-3.967-.66-1.158 8.76-1.984z"/>
        <circle cx="52" cy="52" r="12" fill="#437ECE" stroke="#FFF" stroke-width="2"/>
        <path fill="#FFF" d="M52 44c.552 0 1 .448 1 1v6h6c.552 0 1 .448 1 1s-.448 1-1 1h-6v6c0 .552-.448 1-1 1s-1-.448-1-1v-6h-6c-.552 0-1-.448-1-1s.448-1 1-1h6v-6c0-.552.448-1 1-1z"/>
    </g>
</svg>
