<svg xmlns="http://www.w3.org/2000/svg" width="34" height="34" viewBox="0 0 34 34">
    <path fill="#EB9128" fill-rule="evenodd" d="M26.178 25.03l-.665 3.115h-18L6.93 25.03h19.248zM17.01 8.27l5.075 10.74c.013.028.03.054.052.075.099.098.256.096.352-.003l6.494-6.473-2.388 10.518H6.573l-2.22-10.754 7.065 6.72c.018.017.038.032.06.043.124.06.273.009.333-.114L17.01 8.27zM30 9.336c.792 0 1.435.624 1.435 1.416 0 .792-.643 1.435-1.435 1.435-.791 0-1.4-.643-1.4-1.434 0-.793.609-1.418 1.4-1.418zM3.408 9.26c.787 0 1.426.621 1.426 1.41 0 .513-.281.957-.687 1.207-.024.01-.046.02-.068.033-.201.11-.425.185-.671.185-.786 0-1.408-.639-1.408-1.426 0-.788.622-1.409 1.408-1.409zM16.948 5c.792 0 1.417.625 1.417 1.417s-.625 1.417-1.417 1.417-1.417-.625-1.417-1.417S16.156 5 16.948 5z"/>
</svg>
