<svg xmlns="http://www.w3.org/2000/svg" width="44" height="44" viewBox="0 0 44 44">
    <g fill="none" fill-rule="evenodd" stroke="#666" stroke-width="2">
        <g>
            <path d="M6 1H4c-.828 0-1.578.336-2.121.879C1.336 2.422 1 3.172 1 4v24.586l4 4 4-4V4c0-.828-.336-1.578-.879-2.121C7.578 1.336 6.828 1 6 1zM1.154 7L8.854 7" transform="rotate(30 13.634 56.687)"/>
        </g>
        <path stroke-linecap="round" d="M38 15v20c0 2.21-1.79 4-4 4H10c-2.21 0-4-1.79-4-4V11c0-2.21 1.79-4 4-4h13"/>
    </g>
</svg>
