<svg xmlns="http://www.w3.org/2000/svg" width="60" height="24" viewBox="0 0 60 24">
    <g fill="none" fill-rule="evenodd">
        <path fill="#1D6EEE" fill-rule="nonzero" stroke="#1D6EEE" stroke-width=".4" d="M11.384 18.61c.249 0 .451-.17.607-.507h0l3.3-7.601c.301-.707.602-1.24.903-1.6.114-.137.286-.245.514-.324.228-.08.394-.119.498-.119.042 0 .062-.074.062-.221 0-.095-.01-.175-.03-.238l-.468.032c-.166.01-.327.02-.482.031-.156.01-.353.016-.592.016-.228 0-.758-.026-1.588-.079-.041.042-.062.13-.062.261 0 .132.02.198.062.198.166 0 .356.045.568.135.213.09.32.224.32.404 0 .232-.089.564-.265.997h0l-2.787 6.509c-.062.169-.124.195-.187.079h0l-1.697-3.547 1.2-2.502c.414-.855.715-1.4.902-1.631.104-.127.283-.233.537-.317.254-.085.433-.127.537-.127.031 0 .05-.066.055-.198.005-.132-.003-.219-.024-.261-1.037.053-1.577.08-1.619.08-.218 0-.742-.027-1.572-.08-.042.042-.062.13-.062.261 0 .132.02.198.062.198.166 0 .36.042.584.127.223.084.334.216.334.396 0 .285-.072.591-.217.918h0l-1.09 2.328-1.028-2.138c-.238-.506-.358-.897-.358-1.172 0-.126.06-.227.18-.3.119-.074.228-.12.326-.135.099-.016.184-.024.257-.024.031 0 .05-.066.055-.198.005-.132-.003-.219-.024-.261-1.038.053-1.577.08-1.619.08-.114 0-.768-.027-1.961-.08-.042.042-.063.116-.063.222 0 .158.021.237.063.237.124 0 .285.035.482.103.197.069.338.156.42.261.302.391.603.898.904 1.52h0l1.634 3.421-1.292 2.74c-.02.052-.057.092-.109.118-.052.027-.093.014-.125-.04h0L4.207 10.09c-.239-.464-.358-.855-.358-1.172 0-.116.06-.213.179-.292.12-.08.23-.127.335-.143.103-.016.192-.024.264-.024.031 0 .05-.066.055-.198.005-.132-.003-.219-.024-.261-1.037.053-1.582.08-1.634.08-.114 0-.768-.027-1.962-.08-.041.042-.062.127-.062.253 0 .138.02.206.062.206.125 0 .286.035.483.103.197.069.337.156.42.261.301.391.602.898.903 1.52h0l4.048 8.188c.03.052.078.079.14.079.249 0 .451-.17.607-.507h0l1.681-3.531 1.9 3.959c.03.052.077.079.14.079zm14.198 0c.022-.16.07-.36.147-.604.076-.243.147-.458.212-.643s.155-.429.27-.73c.114-.302.198-.522.252-.66-.065-.063-.2-.095-.408-.095-.13 0-.206.032-.228.095-.12.403-.28.75-.482 1.04-.201.292-.383.48-.547.564-.359.18-1.044.27-2.056.27h0-.784c-.707 0-1.077-.053-1.11-.158-.098-.276-.146-.758-.146-1.446h0v-2.462c0-.095.391-.143 1.175-.143 1.012 0 1.588.043 1.73.127.065.043.111.077.139.104.027.026.068.11.122.254.055.143.12.357.196.643.033.085.12.127.261.127.13 0 .218-.021.261-.063h0v-3.002c-.054-.053-.147-.08-.277-.08-.153 0-.234.037-.245.112-.065.243-.103.394-.114.452-.011.058-.052.151-.123.278-.07.127-.128.196-.171.207-.044.01-.142.037-.294.079s-.296.064-.432.064h0-1.527c-.468 0-.701-.032-.701-.096h0v-2.541c0-.635.027-1.08.081-1.334.022-.138.5-.207 1.437-.207h1.093c.512 0 .914.082 1.208.247.294.164.522.537.686 1.12.01.073.087.11.228.11.142 0 .24-.026.294-.079-.022-.127-.095-.442-.22-.945-.126-.503-.21-.908-.253-1.215-.61 0-1.518.021-2.726.064-1.208.042-2.057.063-2.547.063-.729 0-1.376-.01-1.942-.032-.044.043-.065.133-.065.27 0 .127.021.19.065.19.141 0 .356.038.645.112.288.074.449.154.481.238.076.286.114.742.114 1.366h0v6.004c0 .868-.038 1.366-.114 1.493-.054.095-.22.18-.498.254-.277.074-.487.111-.628.111-.033 0-.05.07-.05.207 0 .137.017.222.05.254h0l1.975-.048c.762 0 1.741.01 2.938.032 1.056.019 1.862.03 2.419.031h.209zm5.096 0c.02-.064.03-.139.03-.224 0-.16-.02-.239-.06-.239-.097 0-.272-.034-.525-.104-.254-.069-.39-.14-.41-.215-.087-.372-.131-.867-.131-1.484h0v-6.063c0-.616.044-1.111.132-1.483.02-.075.155-.15.409-.224.253-.074.428-.111.526-.111.039 0 .058-.075.058-.224 0-.095-.01-.175-.029-.239-.974.053-1.54.08-1.695.08-.049 0-.633-.027-1.754-.08-.039.043-.058.128-.058.255 0 .139.02.208.058.208.127 0 .314.034.563.103.248.07.387.147.416.232.069.287.103.76.103 1.42h0v6.19c0 .66-.034 1.133-.103 1.42-.029.085-.168.16-.416.223-.249.064-.436.096-.563.096-.039 0-.058.075-.058.223 0 .117.02.197.058.24 1.12-.053 1.705-.08 1.754-.08h.025c.185.003.742.03 1.67.08zm4.596 0c.861 0 1.612-.27 2.253-.809.64-.538.96-1.226.96-2.063 0-.252-.048-.495-.145-.73-.098-.236-.2-.432-.308-.589-.107-.157-.282-.337-.523-.541-.24-.204-.417-.346-.53-.424-.113-.078-.323-.215-.63-.408l-.539-.338c-.071-.041-.238-.146-.5-.313-.26-.168-.435-.283-.522-.346-.087-.062-.226-.172-.415-.33-.19-.156-.32-.295-.392-.415-.072-.12-.144-.272-.216-.455-.072-.183-.107-.374-.107-.573 0-.46.125-.848.376-1.162.251-.314.685-.47 1.3-.47.553 0 1.022.217 1.407.65.384.435.602.882.653 1.343.02.104.154.157.4.157.102 0 .154-.037.154-.11 0-.942-.062-1.69-.185-2.245-.184-.041-.397-.096-.638-.164-.24-.068-.425-.118-.554-.15-.128-.03-.292-.06-.492-.086-.2-.026-.412-.039-.638-.039-.8 0-1.502.259-2.106.777-.605.518-.908 1.18-.908 1.985 0 .251.034.492.1.722.067.23.182.448.346.652.164.204.308.376.43.518.124.14.321.303.593.486.272.183.466.311.584.385l.043.026c.122.075.316.192.58.35.092.053.261.147.507.283.246.136.416.235.508.298.092.063.223.16.392.29.17.131.287.254.354.37.066.114.13.26.192.439.061.178.092.371.092.58 0 .576-.18 1.02-.538 1.334-.359.314-.795.471-1.307.471-1.353 0-2.204-.753-2.553-2.26-.071-.094-.2-.141-.384-.141-.164 0-.246.031-.246.094 0 .377.128 1.209.384 2.496.113.02.31.065.592.133s.515.12.7.157c.185.037.415.073.692.11.277.036.538.055.784.055zm12.235 0c.022-.16.07-.36.147-.604.076-.243.147-.458.212-.643s.155-.429.27-.73c.114-.302.198-.522.252-.66-.065-.063-.201-.095-.408-.095-.13 0-.207.032-.228.095-.12.403-.28.75-.482 1.04-.201.292-.383.48-.547.564-.359.18-1.044.27-2.056.27h0-.784c-.707 0-1.077-.053-1.11-.158-.098-.276-.147-.758-.147-1.446h0v-2.462c0-.095.392-.143 1.176-.143 1.012 0 1.588.043 1.73.127.065.043.111.077.139.104.027.026.068.11.122.254.054.143.12.357.196.643.032.085.12.127.261.127.13 0 .218-.021.261-.063h0v-3.002c-.054-.053-.147-.08-.277-.08-.153 0-.234.037-.245.112-.065.243-.104.394-.114.452-.011.058-.052.151-.123.278-.07.127-.128.196-.171.207-.044.01-.142.037-.294.079s-.297.064-.433.064h0-1.526c-.468 0-.702-.032-.702-.096h0v-2.541c0-.635.028-1.08.082-1.334.022-.138.5-.207 1.436-.207h1.094c.511 0 .914.082 1.208.247.294.164.522.537.685 1.12.011.073.087.11.229.11.141 0 .24-.026.294-.079-.022-.127-.095-.442-.22-.945-.126-.503-.21-.908-.254-1.215-.609 0-1.518.021-2.726.064-1.207.042-2.056.063-2.546.063-.729 0-1.376-.01-1.942-.032-.044.043-.066.133-.066.27 0 .127.022.19.066.19.141 0 .356.038.644.112.289.074.45.154.482.238.076.286.114.742.114 1.366h0v6.004c0 .868-.038 1.366-.114 1.493-.054.095-.22.18-.498.254-.277.074-.487.111-.628.111-.033 0-.05.07-.05.207 0 .137.017.222.05.254h0l1.975-.048c.762 0 1.74.01 2.938.032 1.056.019 1.862.03 2.419.031h.209zm11.02 0c.168 0 .31-.016.424-.048.031-.064.047-.144.047-.24 0-.085-.016-.159-.047-.223-.627 0-1.441-.558-2.444-1.675-.68-.755-1.28-1.691-1.802-2.808-.042-.064-.01-.117.094-.16.564-.265 1.01-.643 1.34-1.132.329-.49.493-.958.493-1.404 0-.522-.115-.979-.345-1.372-.23-.394-.522-.697-.877-.91-.355-.213-.716-.372-1.081-.478-.366-.107-.726-.16-1.081-.16-.303 0-.669.01-1.097.032-.428.021-.8.032-1.113.032h0l-1.88-.032c-.042.042-.062.133-.062.271 0 .128.02.192.062.192.136 0 .342.037.62.111.276.075.43.154.461.24.073.287.11.744.11 1.372h0v6.03c0 .873-.037 1.373-.11 1.5-.052.096-.209.176-.47.24-.26.063-.465.095-.61.095-.032 0-.048.07-.048.208 0 .16.016.255.047.287h0l1.912-.08c.313 0 .992.027 2.037.08.02-.064.031-.144.031-.24 0-.148-.02-.223-.063-.223-.135 0-.363-.042-.681-.127-.319-.086-.504-.197-.556-.336-.084-.212-.126-.675-.126-1.388h0V13.92c0-.085.021-.149.063-.191.042-.043.083-.067.125-.072.042-.005.105-.008.188-.008.272 0 .465.021.58.064.115.053.222.122.321.207.1.085.214.213.345.383.13.17.245.327.345.47.099.144.255.378.47.703.214.324.404.603.572.837 1.075 1.532 2.345 2.298 3.807 2.298zm-5.525-5.659h-.399c-.924 0-1.385-.153-1.385-.46h0v-2.076c.001-.443.01-.776.023-1 .016-.25.038-.408.064-.477.027-.07.061-.109.104-.12.265-.074.637-.11 1.115-.11 1.487 0 2.23.736 2.23 2.209 0 .614-.199 1.107-.597 1.478-.399.37-.784.556-1.155.556h0z"/>
        <circle cx="2.5" cy="2.5" r="1.5" fill="#FF784A"/>
    </g>
</svg>
