<svg xmlns="http://www.w3.org/2000/svg" width="68" height="68" viewBox="0 0 68 68">
    <defs>
        <filter id="prefix__a" width="121.3%" height="141.6%" x="-10.7%" y="-20.8%" filterUnits="objectBoundingBox">
            <feOffset in="SourceAlpha" result="shadowOffsetOuter1"/>
            <feGaussianBlur in="shadowOffsetOuter1" result="shadowBlurOuter1" stdDeviation="25"/>
            <feColorMatrix in="shadowBlurOuter1" result="shadowMatrixOuter1" values="0 0 0 0 0 0 0 0 0 0 0 0 0 0 0 0 0 0 0.22 0"/>
            <feMerge>
                <feMergeNode in="shadowMatrixOuter1"/>
                <feMergeNode in="SourceGraphic"/>
            </feMerge>
        </filter>
    </defs>
    <g fill="#343434" fill-rule="evenodd" filter="url(#prefix__a)" transform="translate(-772 -43)">
        <path d="M793.272 64.272c.781-.781 2.047-.781 2.829 0l9.899 9.9 9.9-9.9c.78-.781 2.047-.781 2.828 0 .781.781.781 2.047 0 2.829l-9.9 9.899 9.9 9.9c.781.78.781 2.047 0 2.828-.781.781-2.047.781-2.829 0l-9.9-9.9-9.898 9.9c-.782.781-2.048.781-2.829 0-.781-.781-.781-2.047 0-2.829l9.899-9.9-9.899-9.898c-.781-.782-.781-2.048 0-2.829z"/>
    </g>
</svg>
