<svg xmlns="http://www.w3.org/2000/svg" width="64" height="35" viewBox="0 0 64 35">
    <g fill="#757B8C" fill-rule="evenodd">
        <g>
            <path d="M24.286 28.572V30h-1.43v-1.428h1.43zm-11.43-2.858h1.43v1.428h-2.857v-2.857h1.428V21.43h-1.428v-2.857H8.57v-1.429H10v-1.429h1.429v-2.857H8.57v-1.429h2.858V8.571h1.428v1.43h1.429v1.427h-1.43v2.857h1.43v-1.428h1.429v-1.429h1.428v4.286h-2.857v1.428h2.857v1.43h-1.428v2.857h1.427v1.429h-1.428v-1.429h-1.428v2.856h2.857v1.429h1.429v-4.286h2.857V20h1.427v1.428h1.43v2.857h4.285v1.43h-5.715v2.857h-1.427v-2.858H20v1.428h-1.428v1.43H20V30h-7.143v-1.428h4.285v-2.858h-2.856l-.001-1.429h-1.428v1.43zM30 27.143v1.429h-1.428v-1.429h1.428zm-2.855 0v1.429h-1.429v-1.429h1.429zM7.143 22.857v4.286H2.857v-4.286h4.286zm21.428-1.428v1.428h1.428v1.428h-1.428l-.001-1.427h-2.855v-1.429h2.856zM20 17.143v1.429h-1.427v2.855h-1.43v-2.856h1.427l.001-1.428H20zm5.715 1.428v2.856h-1.429v-2.856h1.429zm4.284-1.428v1.429h-1.427V20h-1.428v-1.429h1.426l.001-1.428h1.428zm-17.142-1.429h-1.428v2.857h1.428V20h1.429v-2.857h-1.43v-1.429zm-8.572 1.429v1.429H2.857v-1.429h1.428zm-2.857 0v1.429H0v-1.429h1.428zm24.287-4.286v1.43h1.428v4.284h-1.428v-1.428h-2.859v1.428H21.43v-2.857h2.857v-2.857h1.43zM5.714 11.43v1.429H2.857v1.428h1.429v1.428H2.857v1.429H1.428v-2.857H0v-1.43h2.856l.001-1.427h2.857zm0 1.428h2.858v1.43l1.427-.001v1.429H8.571v1.427l-2.857.001v-4.286zm12.859 2.857v1.428h-1.43v-1.428h1.43zm11.426-1.428v1.428h-1.428v-1.428h1.428zm-21.428 0H7.142v1.428H8.57l.001-1.428zm12.857-2.857v1.428H20v1.429h-1.429v-2.857h2.857zm2.858 0v1.429h-1.43v-1.429h1.43zm-5.714-5.715v5.714h-1.43V8.572h-1.427v1.43h-1.43V7.144h2.858v-1.43h1.429zM7.143 2.857v4.286H2.857V2.857h4.286zm19.999 0v4.286h-4.286V2.857h4.286zM18.571 0v1.428h-1.429v1.43h-2.856v4.285h-2.857V5.714h1.428V1.428h2.857V0h2.857zm-1.429 4.286v1.429h-1.428V4.286h1.428z" transform="translate(2 2)"/>
            <path d="M0 10h10V0H0v10zm1.428-1.429h7.143V1.429H1.428v7.142zM20 10h10V0H20v10zm1.429-1.429h7.142V1.429h-7.142v7.142zM0 30h10V20H0v10zm1.428-1.429h7.143v-7.143H1.428v7.143z" transform="translate(2 2)"/>
        </g>
        <path d="M53 8c.552 0 1 .448 1 1v7h7c.552 0 1 .448 1 1s-.448 1-1 1h-7v7c0 .552-.448 1-1 1s-1-.448-1-1v-7h-7c-.552 0-1-.448-1-1s.448-1 1-1h7V9c0-.552.448-1 1-1z"/>
    </g>
</svg>
