<svg xmlns="http://www.w3.org/2000/svg" width="64" height="35" viewBox="0 0 64 35">
    <g fill="none" fill-rule="evenodd">
        <path fill="#757B8C" d="M4 7.242l6.338 2.01-.062 5.388c-.003.102.015.204.052.298.037.095.092.182.163.255.071.073.155.132.249.172.093.04.194.062.296.063.101 0 .203-.018.297-.056.094-.038.181-.095.252-.167.073-.07.13-.157.169-.25.039-.094.059-.195.059-.297l.058-4.92 6.36 2.015V32.44L4 27.932V7.242zm30 .001v20.69L19.769 32.44V11.764L34 7.244zM26.882 4.5l5.345 1.694-13.21 4.196-5.36-1.7L26.882 4.5zM19 2l5.338 1.692-13.227 4.191-5.32-1.686L19 2z"/>
        <g stroke="#757B8C" stroke-linecap="round" stroke-width="2">
            <path d="M1 6h10c3.314 0 6 2.686 6 6s-2.686 6-6 6H1h0" transform="translate(42 5)"/>
            <path d="M10.586 2L10.586 10 2.586 10" transform="translate(42 5) rotate(135 6.586 6)"/>
        </g>
    </g>
</svg>
