<svg xmlns="http://www.w3.org/2000/svg" width="64" height="35" viewBox="0 0 64 35">
    <g fill="#757B8C" fill-rule="evenodd">
        <path d="M56 23c.552 0 1 .448 1 1s-.448 1-1 1H41c-.552 0-1-.448-1-1s.448-1 1-1h15zm-2-6c.552 0 1 .448 1 1s-.448 1-1 1H41c-.552 0-1-.448-1-1s.448-1 1-1h13zm5-6c.552 0 1 .448 1 1s-.448 1-1 1H41c-.552 0-1-.448-1-1s.448-1 1-1h18zM17.059 33.505H4v-4.224c0-.874.389-1.747 1.068-2.281 3.835-3.155 7.962-5.243 8.787-5.631.097-.049.145-.145.145-.243v-2.184c-.582-.971-.873-2.039-1.019-3.01-.339-.049-.776-.485-1.262-2.184-.631-2.185-.049-2.573.534-2.573h.097c-.437-1.214-.437-2.379-.145-3.495.291-1.311 1.019-2.33 1.795-3.155.486-.535 1.068-.972 1.651-1.36.486-.34 1.019-.631 1.602-.825.437-.146.971-.243 1.456-.292.194 0 .437-.048.631-.048 1.311 0 2.282.34 3.058.825 1.311.728 1.797 1.651 1.797 1.651s3.252.242 1.844 7.087c.437.146.728.777.243 2.573-.485 1.747-.971 2.184-1.31 2.184-.098 0-.195-.048-.244-.097-.145.777-.339 1.602-.728 2.379v2.573c0 .097.049.194.146.242.826.389 5 2.525 8.787 5.632.679.582 1.067 1.407 1.067 2.281v4.224H17.059v-.049z"/>
    </g>
</svg>
