<svg xmlns="http://www.w3.org/2000/svg" width="64" height="35" viewBox="0 0 64 35">
    <g fill="none" fill-rule="evenodd">
        <path fill="#757B8C" d="M2 7.242l6.338 2.01-.062 5.388c-.003.102.015.204.052.298.037.095.092.182.163.255.071.073.155.132.249.172.093.04.194.062.296.063.101 0 .203-.018.297-.056.094-.038.181-.095.252-.167.073-.07.13-.157.169-.25.039-.094.059-.195.059-.297l.058-4.92 6.36 2.015V32.44L2 27.932V7.242zm30 .001v20.69L17.769 32.44V11.764L32 7.244zM24.882 4.5l5.345 1.694-13.21 4.196-5.36-1.7L24.882 4.5zM17 2l5.338 1.692L9.111 7.883l-5.32-1.686L17 2z"/>
        <path stroke="#757B8C" stroke-linecap="round" stroke-linejoin="round" stroke-width="2" d="M45 18.43l5.37 5.294L60.72 11"/>
    </g>
</svg>
