<?xml version="1.0" encoding="utf-8"?>
<!-- Generator: Adobe Illustrator 24.0.2, SVG Export Plug-In . SVG Version: 6.00 Build 0)  -->
<svg version="1.1" id="Layer_1" xmlns:sketch="http://www.bohemiancoding.com/sketch/ns"
	 xmlns="http://www.w3.org/2000/svg" xmlns:xlink="http://www.w3.org/1999/xlink" x="0px" y="0px" viewBox="0 0 32 32"
	 style="enable-background:new 0 0 32 32;" xml:space="preserve">
<style type="text/css">
	.st0{fill-rule:evenodd;clip-rule:evenodd;fill:#FFFFFF;}
</style>
<title></title>
<desc></desc>
<g id="Page-1">
	<g id="icon-92-inbox-download">
		<path id="inbox-download" class="st0" d="M16,16l-3.2-3.2L12,13.5l4.5,4.5l4.5-4.5l-0.8-0.8L17,16V5h-1V16L16,16z M18,11h5.4
			l4.4,7H21v2c0,1.1-0.9,2-2,2h-5c-1.1,0-2-0.9-2-2v-2H5.2l0,0l4.4-7H15v-1H9l-5,8v0.5V27h25v-8.5V18l-5-8h-6V11L18,11L18,11z
			 M22,19h6v7H5v-7h6v1.5c0,1.4,1.1,2.5,2.5,2.5h6c1.4,0,2.5-1.1,2.5-2.5V19L22,19L22,19z"/>
	</g>
</g>
</svg>
