<svg xmlns="http://www.w3.org/2000/svg" width="210" height="44" viewBox="0 0 210 44">
    <path fill="#FFF" stroke="#FFF" stroke-width=".2" d="M73.092 10.9c-1.7 0-3.193.54-4.48 1.619-1.29 1.083-1.937 2.467-1.937 4.153 0 .525.072 1.029.214 1.51.143.486.39.943.744 1.373.344.42.646.776.905 1.067.262.294.681.634 1.26 1.016.57.377.98.64 1.317.845.257.156.663.396 1.217.72.172.096.464.256 1.067.582.511.277.863.48 1.055.608.193.128.465.326.817.592.342.26.581.501.716.729.137.232.268.527.394.885.126.355.188.741.188 1.159 0 1.147-.362 2.036-1.093 2.663-.734.63-1.626.943-2.674.943-1.39 0-2.524-.377-3.4-1.136-.877-.761-1.493-1.905-1.87-3.466-.162-.207-.428-.346-1.501-.035 0 .776.268 2.49.888 5.222.235.043.647.134 1.235.273.593.14 1.083.248 1.47.323.389.075.874.151 1.457.227.585.075 1.137.113 1.656.113 1.83 0 3.424-.561 4.785-1.682 1.367-1.127 2.05-2.565 2.05-4.315 0-.53-.104-1.042-.313-1.538-.208-.49-.426-.9-.655-1.227-.23-.327-.6-.705-1.114-1.131-.508-.422-.881-.714-1.12-.876-.236-.161-.678-.442-1.324-.84l-.468-.288-.661-.406c-.152-.087-.5-.3-1.046-.643s-.91-.578-1.091-.706c-.182-.128-.47-.353-.865-.673-.386-.313-.653-.588-.8-.828-.147-.243-.295-.55-.443-.92-.146-.364-.218-.744-.218-1.14 0-.919.254-1.693.767-2.32.51-.627 1.397-.93 2.645-.93 1.131 0 2.09.435 2.875 1.304.797.882 1.247 1.79 1.763 3.006.188.016.466-.017.94-.221 0-1.943-.13-3.487-.464-4.706-.386-.086-.83-.198-1.333-.337-.506-.14-.894-.243-1.163-.307-.272-.066-.619-.125-1.042-.18-.423-.054-.873-.081-1.35-.081zm-37.487.13l-.966.064c-.344.021-.677.043-1 .064-.32.021-.726.032-1.217.032-.472 0-1.566-.054-3.358-.132-.094.094-.172.269.07 1.105.333 0 .713.09 1.139.267.202.083.354.187.599.73 0 .417-.148.997-.541 1.993l-6.065 13.209-3.399-6.985 2.46-5.048c.854-1.73 1.472-2.83 1.857-3.3.206-.247.566-.45 1.216-.661.469-.15.812-.265 1.143-.703.012-.295-.012-.487-.153-.636-2.146.107-3.261.161-3.347.161-.45 0-1.533-.054-3.326-.132-.093.094-.172.269.071 1.105.334 0 .725.085 1.174.252.212.079.372.178.627.712 0 .497-.114 1.027-.443 1.831l-2.165 4.545-2.036-4.164c-.485-1.012-.73-1.792-.73-2.341 0-.223.11-.397.322-.527.234-.142.448-.23.66-.263.216-.034.41-.06.71-.543.01-.295-.013-.487-.154-.636-2.145.107-3.26.161-3.43.16-.393-.005-1.74-.025-4.01.78l-.549.194h.582c.25 0 .571.07.966.205.386.131.662.296.825.5.55.701 1.1 1.59 1.858 3.076l3.36 6.913-3.042 5.524-6.585-13.043c-.485-.928-.73-1.708-.73-2.34 0-.205.112-.374.325-.512.233-.153.45-.245.672-.278.228-.034.428-.06.727-.543.011-.295-.012-.487-.154-.636-2.145.107-3.271.161-3.379.161-.236 0-1.588-.054-4.13-.132-.094.094-.173.263.07 1.105.25 0 .572.07.967.205.385.131.661.296.824.5.55.701 1.1 1.59 1.858 3.076l8.696 16.875c.288.014.549-.065.796-.268.21-.172.411-.436.611-.815l3.395-7.01 4.157 8.093c.288.014.549-.065.796-.268.21-.172.411-.436.611-.815l6.835-15.475c.619-1.429 1.236-2.506 1.854-3.23.227-.269.57-.477 1.077-.65.469-.159.818-.273 1-1.352zm73.194.063c.74 0 1.49.109 2.25.326.76.218 1.51.543 2.248.977.744.438 1.358 1.062 1.84 1.872.481.81.723 1.75.723 2.823 0 .92-.343 1.884-1.033 2.892-.67.98-1.575 1.741-2.714 2.284.874 2.52 2.09 4.375 3.463 5.875 2.032 2.222 3.68 3.35 4.953 3.35-.01.58-.132.843-.262.997-.183.216-.383.235-.608.235-3.037 0-5.676-1.557-7.912-4.682-.344-.473-.737-1.038-1.178-1.695-.44-.654-.762-1.126-.966-1.416-.203-.289-.438-.604-.706-.947-.263-.337-.494-.59-.694-.758-.197-.166-.41-.3-.63-.402-.218-.079-.575-.118-1.073-.122h0l-.76 5.192c.013 1.535.093 2.364.252 2.76.1.262.472.458 1.076.616.643.17 1.102.255 1.376.255.167 0 .403-.032.706-.095-.21.098-.432.194-.669.288-1.99.79-3.358.784-4.047.78h0l-4.097.164c-.106-.133-.146-.34-.146-.683.403-.464.795-.56 1.283-.674.634-.152.95-.288 1.051-.472.148-.253.212-1.25.212-2.979v-12.18c-.013-1.402-.085-2.215-.221-2.742-.064-.156-.376-.284-.88-.417-.559-.148-.975-.223-1.248-.223-.26-.917-.143-1.046-.038-1.135h0l3.904.065c.863-.006 1.53-.027 2.285-.064 1.095-.049 1.725-.065 2.26-.065zm-.516 1.618c-.933 0-1.662.07-2.383.438-.047.15-.082.451-.111.903-.03.453-.045 1.127-.048 2.023l.221 4.61c.116.088.273.161.471.221.46.14 1.13.21 2.011.21h.806c.731 0 1.486-.371 2.268-1.101.786-.734 1.177-1.71 1.177-2.924 0-1.46-.362-2.558-1.098-3.289-.737-.73-1.843-1.09-3.314-1.09zM95.94 10.964c-1.204 0-2.999.043-5.385.13-2.383.085-4.058.128-5.024.128-1.438 0-2.715-.021-3.905-.035-.094.094-.173.275.07 1.105.274 0 .69.075 1.248.223.505.133.817.26.88.417.136.527.209 1.34.222 2.742v12.18c0 1.73-.065 2.726-.212 2.98-.102.183-.42.33-.99.487-.57.155-.997.27-1.28 1.342l4.034-.1c1.501 0 3.434.021 5.797.064 2.086.038 3.678.06 5.29-.022.041-.318.137-.721.286-1.209.15-.493.289-.927.418-1.302.128-.375.305-.868.53-1.48.226-.612.392-1.057.477-1.443-.138-.137-.408-.238-1.424.043-.233.806-.545 1.5-.937 2.083-.385.572-.731.945-1.044 1.112-.659.34-1.884.514-4.014.536H89.43c-.677 0-1.195-.026-2.113-.303-.167-.518-.255-1.38-.269-2.847l.57-5.128c.383-.041.933-.062 1.65-.062 1.954 0 3.077.073 3.625.444.05.055.118.215.213.474.109.292.24.732.748 1.552.17.021.436.005.864-.068V18.79c-.12-.128-.251-.268-1.228.08-.13.497-.205.806-.227.925-.02.112-.099.29-.506.904-.086.021-.28.075-.583.162-.22.063-.431.102-.833.125h-3.007c-.41 0-.727-.013-1.286-.169v-5.08c0-1.248.048-2.13.8-2.915.459-.068 1.148-.105 2.098-.112h2.158c.989 0 1.767.16 2.335.487.57.327 1.008 1.077 1.855 2.51.317 0 .53-.07.679-.277-.043-.259-.189-.9-.437-1.925-.246-1.016-.412-1.835-.597-2.542zm-44.472 0c-1.204 0-3 .043-5.386.13-2.383.085-4.057.128-5.023.128-1.438 0-2.715-.021-3.906-.035-.094.094-.173.275.07 1.105.274 0 .69.075 1.248.223.505.133.817.26.88.417.137.527.209 1.34.222 2.742v12.18c0 1.73-.064 2.726-.212 2.98-.102.183-.42.33-.99.487-.57.155-.996.27-1.28 1.342l4.035-.1c1.5 0 3.433.021 5.796.064 2.086.038 3.678.06 5.29-.022.042-.318.138-.721.286-1.209.15-.493.29-.927.418-1.302.129-.375.306-.868.53-1.48.226-.612.393-1.057.477-1.443-.138-.137-.408-.238-1.423.043-.234.806-.546 1.5-.938 2.083-.385.572-.731.945-1.044 1.112-.658.34-1.884.514-4.014.536h-1.546c-.677 0-1.195-.026-2.113-.303-.167-.518-.254-1.38-.268-2.847l.57-5.128c.383-.041.932-.062 1.65-.062 1.953 0 3.076.073 3.624.444.05.055.118.215.214.474.108.292.239.732.748 1.552.169.021.435.005.863-.068V18.79c-.12-.128-.25-.268-1.228.08-.13.497-.205.806-.227.925-.02.112-.099.29-.506.904-.086.021-.28.075-.583.162-.22.063-.431.102-.832.125h-3.008c-.41 0-.727-.013-1.285-.169v-5.08c0-1.248.047-2.13.799-2.915.459-.068 1.148-.105 2.098-.112h2.159c.988 0 1.767.16 2.335.487.57.327 1.008 1.077 1.854 2.51.317 0 .53-.07.679-.277-.043-.259-.189-.9-.437-1.925-.246-1.016-.412-1.835-.596-2.542zm12.048.065c-2.146.107-3.39.161-3.734.161-.107 0-1.395-.054-3.938-.132-.093.094-.172.263.071 1.105.274 0 .68.07 1.216.207.484.123.785.245.848.4.137.532.209 1.38.22 2.84v12.502c0 1.316-.072 2.262-.22 2.837-.064.158-.372.274-.974.415-.507.117-.901.212-1.319.712 0 .275.06.456.233.583 2.37-.103 3.652-.156 4.025-.158.496.009 1.707.031 3.552-.785.21-.092.405-.186.588-.28-.281.06-.49.089-.628.089-.21 0-.589-.07-1.136-.206-.262-.066-.465-.133-.838-.399-.167-.666-.259-1.53-.278-2.938V15.737c0-1.235.095-2.226.286-2.972.04-.135.347-.249.885-.394.561-.15.955-.255 1.14-1.342z"/>
</svg>
